<?xml version="1.0" standalone="no"?>
<!DOCTYPE svg PUBLIC "-//W3C//DTD SVG 20010904//EN"
 "http://www.w3.org/TR/2001/REC-SVG-20010904/DTD/svg10.dtd">
<svg version="1.0" xmlns="http://www.w3.org/2000/svg"
 width="2436.000000pt" height="2436.000000pt" viewBox="0 0 2436.000000 2436.000000"
 preserveAspectRatio="xMidYMid meet">
<metadata>
Created by potrace 1.14, written by Peter Selinger 2001-2017
</metadata>
<g transform="translate(0.000000,2436.000000) scale(0.100000,-0.100000)"
fill="#000000" stroke="none">
<path d="M0 12180 l0 -12180 12180 0 12180 0 0 12180 0 12180 -12180 0 -12180
0 0 -12180z m3850 2470 c620 -45 1102 -262 1546 -693 472 -457 714 -961 764
-1587 7 -89 10 -474 8 -1120 l-3 -985 -24 -70 c-87 -259 -278 -442 -530 -506
-92 -24 -261 -26 -346 -4 -199 50 -396 213 -485 400 -67 142 -63 73 -70 1215
-6 1029 -6 1036 -28 1115 -29 104 -107 263 -170 345 -100 132 -274 276 -406
336 -148 67 -352 99 -525 83 -233 -22 -426 -110 -603 -277 -167 -158 -265
-339 -304 -564 -21 -119 -14 -318 15 -430 94 -363 376 -648 736 -743 33 -9
123 -20 200 -25 172 -12 241 -25 323 -57 219 -88 394 -289 447 -516 21 -90 19
-257 -4 -349 -52 -202 -196 -379 -384 -472 -126 -62 -192 -76 -367 -76 -488 0
-957 145 -1350 418 -173 121 -401 332 -545 507 -141 171 -290 422 -370 624
-178 452 -221 976 -119 1481 93 460 343 908 702 1252 442 424 943 653 1522
697 165 12 219 12 370 1z m7221 -5 c288 -50 501 -240 591 -525 19 -63 23 -95
22 -205 -1 -113 -4 -141 -27 -210 -66 -197 -195 -346 -382 -440 -152 -77 -115
-75 -1145 -75 -540 0 -959 -4 -1022 -10 -241 -23 -433 -110 -607 -275 -227
-215 -333 -480 -318 -794 20 -431 300 -800 707 -929 123 -40 168 -42 762 -42
l579 0 -3 143 -3 142 -590 5 c-575 5 -591 6 -648 27 -126 48 -200 95 -293 188
-75 74 -99 106 -136 182 -64 128 -82 214 -75 367 4 94 11 137 30 193 71 202
194 346 372 433 160 79 87 74 1154 78 1082 3 1054 5 1216 -72 170 -81 281
-187 355 -341 81 -167 75 -78 75 -1200 0 -1104 3 -1047 -65 -1191 -97 -203
-266 -344 -489 -407 -76 -22 -78 -22 -1091 -22 -896 1 -1031 3 -1148 18 -414
53 -764 184 -1082 405 -268 187 -550 481 -725 757 -70 111 -171 317 -219 448
-151 409 -187 936 -95 1392 93 464 311 865 664 1221 77 77 183 175 235 216
397 316 843 492 1335 527 66 4 539 9 1051 10 779 1 945 -1 1015 -14z m3819 5
c513 -38 900 -180 1300 -478 142 -105 426 -388 529 -525 264 -353 412 -719
473 -1167 10 -72 13 -344 13 -1145 0 -1157 3 -1094 -64 -1240 -95 -204 -284
-358 -503 -410 -82 -19 -257 -19 -333 0 -198 50 -397 214 -485 400 -67 142
-63 74 -70 1210 -6 932 -8 1036 -23 1095 -56 210 -145 359 -303 510 -177 169
-368 257 -605 279 -302 29 -579 -66 -798 -274 -153 -145 -242 -297 -298 -505
-15 -59 -17 -163 -23 -1100 -7 -1117 -3 -1049 -59 -1188 -82 -204 -284 -375
-504 -427 -83 -20 -266 -19 -342 0 -240 62 -441 251 -523 490 l-27 80 -3 1000
c-2 667 0 1043 8 1130 42 496 202 908 508 1305 96 123 349 371 482 472 392
294 811 453 1285 487 173 12 215 12 365 1z m5520 0 c378 -28 678 -111 980
-271 351 -187 703 -510 945 -868 147 -217 281 -533 334 -786 56 -264 54 -211
58 -1339 4 -938 2 -1058 -12 -1129 -57 -279 -278 -506 -557 -572 -82 -19 -257
-19 -333 0 -199 50 -396 213 -485 400 -67 142 -63 74 -70 1210 -6 1024 -6
1031 -28 1115 -28 107 -105 265 -170 350 -100 132 -274 276 -406 336 -148 67
-352 99 -525 83 -232 -22 -429 -112 -600 -274 -169 -160 -268 -341 -306 -561
-13 -73 -15 -233 -15 -1043 0 -619 -4 -979 -11 -1021 -39 -245 -195 -447 -425
-551 -94 -43 -175 -59 -299 -59 -132 0 -200 15 -310 70 -189 93 -330 259 -387
455 l-23 80 0 1065 c0 978 1 1075 18 1185 58 386 179 703 382 1005 392 582
990 981 1637 1089 211 36 407 46 608 31z m-5519 -1775 c331 -86 559 -378 559
-714 0 -116 -18 -205 -59 -295 -86 -191 -245 -334 -446 -402 -62 -21 -105 -28
-192 -32 -142 -6 -232 13 -356 76 -76 37 -108 61 -182 136 -149 150 -215 306
-215 510 0 125 18 212 63 309 44 96 85 154 154 224 177 176 437 249 674 188z
m5520 0 c247 -64 444 -248 527 -490 l27 -80 3 -1002 c3 -1101 5 -1062 -58
-1199 -98 -216 -297 -376 -529 -425 -32 -7 -104 -9 -175 -7 -189 7 -308 57
-452 191 -93 87 -165 194 -201 300 l-28 82 0 1035 0 1035 27 73 c97 266 302
447 563 498 84 16 208 11 296 -11z"/>
</g>
</svg>
